<?xml version="1.0" encoding="utf-8"?>
<!-- Generator: Adobe Illustrator 26.3.1, SVG Export Plug-In . SVG Version: 6.00 Build 0)  -->
<svg version="1.1" id="Layer_1" xmlns="http://www.w3.org/2000/svg" xmlns:xlink="http://www.w3.org/1999/xlink" x="0px" y="0px"
	 viewBox="0 0 3278.2 557.8" style="enable-background:new 0 0 3278.2 557.8;" xml:space="preserve">
<style type="text/css">
	.st0{fill:#FFFFFF;}
	.st1{fill:#5DB5DD;}
	.st2{fill:#424850;}
	.st3{fill:#63B8DE;}
	.st4{fill:#4A4F57;}
	.st5{fill:#62B7DE;}
	.st6{fill:#464C53;}
	.st7{fill:#4A4F56;}
	.st8{fill:#63B8DF;}
	.st9{fill:#474C53;}
	.st10{fill:#40454E;}
</style>
<path class="st0" d="M369.9,208.3c21-25.9,38.6-47.6,59.4-73.3c18.3,23.6,34.1,43.9,51.6,66.4c10.9-14.9,20.1-27.8,29.6-40.4
	c76.6-102.6,214.2-118.8,313.4-36.9c91.3,75.3,98.8,219,16.2,309.8c-79,86.9-229.7,92-306.8,2.3
	C473.3,366.3,425.1,286.2,369.9,208.3z M807,286.9c0.1-55.1-32.6-100.1-85.3-117.1c-51-16.5-103.7,0.7-135.7,44.3
	c-54.4,74.3-54.4,74.3,1.3,147c33.2,43.4,86.8,59.3,139.3,41.4C773.1,386.7,807,338,807,286.9z"/>
<path class="st0" d="M381.3,101.2c-18.3,22.9-36.5,45.6-54.1,67.7c-93.3-10.3-144.7,13.8-166.4,76.9
	c-18.5,54.1,3.8,115.9,53.3,145.6c32.8,19.7,69.7,26.4,103.1,9.3c29.9-15.2,54.5-40.7,83-62.9c14.6,21.3,32.1,46.8,49.1,71.7
	c-62.4,94.1-194.7,118.6-290.1,55.2C62.6,400.5,35.2,266.9,98.7,169.2C160.4,74.5,290.1,42.6,381.3,101.2z"/>
<path class="st0" d="M2946.3,83.1c41.6,0,81-0.1,120.3,0.1c5.6,0,11.4,2,16.9,1.5c38.6-3.3,74.3,20.6,84.6,57.6
	c10.1,36.1,9.8,80.3-38.2,108.1c-1.2,0.7-1.8,2.7,1-1.8c18,22.8,40.5,41.2,49.5,64.8c21.7,57.2-15.4,119.1-77.4,126.3
	c-51,5.9-103.3,1.2-156.8,1.2C2946.3,322.5,2946.3,205.5,2946.3,83.1z M2985.4,271.1c0,49.6,0,92.7,0,138.1
	c33.9,0,65.9,0.5,97.9-0.1c37.7-0.7,60.6-22,64.1-58.3c3.7-37.2-15-67.9-50.9-73.3C3060.7,272,3023.8,273,2985.4,271.1z M2985,238.8
	c35.1,0,68,1.5,100.7-0.5c27-1.6,47.9-27.1,50.5-56.4c2.3-26.6-13.5-58.7-35.3-61.4c-37.8-4.8-76.1-5-116-7.2
	C2985,157.8,2985,196.1,2985,238.8z"/>
<path class="st0" d="M1965,176.7c0,87.4,0,174.8,0,264c-13.6,0-24.3,0-36.6,0c0-121.1,0-241.5,0-367.7
	c87.4,95,171.5,186.4,259.8,282.4c0-92.8,0-179.9,0-269.4c14.4,0,25.9,0,38.6,0c0,120.1,0,240,0,366.5
	c-87.4-95.2-171.3-186.5-255.2-277.8C1969.3,175.4,1967.2,176,1965,176.7z"/>
<path class="st0" d="M2923.4,441.6c-17.1,0-28.1,0-41.3,0c-38.8-92.1-77.5-184.1-119-282.8c-41.5,97.9-80.4,189.6-119.8,282.2
	c-13.2,0-25.1,0-41.4,0c53.4-124.3,105.9-246.8,161.1-375.4C2817.6,193.6,2869.5,315.3,2923.4,441.6z"/>
<path class="st0" d="M1313.1,108.7c0-9.5,0-17.8,0-26c51.8-8.1,116.8,28.7,149.2,83.8c41.2,69.9,33.6,149.4-23.3,224.4
	c19.5,16.4,39.4,33.1,60.1,50.5c-12.8,13.6-20.4,21.7-28.8,30.7c-21.1-19.1-41.2-37.2-58.3-52.7c-33.8,10.6-63.9,20.1-97.5,30.7
	c-1.1-13.7-1.9-22.6-2.9-34.7c49-6.9,90.4-26.3,116.5-70c19.2-32.1,23.9-67,20.6-103.7C1442.3,171.7,1398.7,128.1,1313.1,108.7z"/>
<path class="st0" d="M1615.8,84.9c11,0,22,0,35.4,0c0,107.7,0,214.2,0,323.2c53.9,0,105.6,0,159.3,0c0,12.1,0,21.7,0,32.9
	c-64.2,0-128.3,0-194.7,0C1615.8,323.1,1615.8,204.6,1615.8,84.9z"/>
<path class="st0" d="M2436.6,409.3c30.7,0,56.1,0,81.5,0c25.3,0,50.6,0,77.5,0c0,11.9,0,20.8,0,31.7c-64.6,0-128.5,0-194.9,0
	c0-117.5,0-235,0-354.5c11,0,21.8,0,35.9,0C2436.6,192.9,2436.6,299.2,2436.6,409.3z"/>
<path class="st0" d="M1291.9,417.4c0,7.9,0,16.2,0,24.4c-84.3,9.5-168.6-74.3-173.5-169.3c-5.9-113.5,92-194.6,172.8-191.7
	c0,8.9,0,17.8,0,26.5c-96.2,34.2-134.9,79-135,155.5C1156,339,1193,381.3,1291.9,417.4z"/>
<path class="st0" d="M1842.8,85c11.2,0,22.2,0,34.9,0c0,118.5,0,236,0,355.6c-11.2,0-22,0-34.9,0C1842.8,323,1842.8,204.6,1842.8,85
	z"/>
<path class="st0" d="M1562.6,441.5c-12.5,0-21.7,0-33.1,0c0-118.3,0-235.9,0-355.4c10.1,0,20.7,0,33.1,0
	C1562.6,204.1,1562.6,321.7,1562.6,441.5z"/>
<path class="st1" d="M369.9-425.6c21-25.9,38.6-47.6,59.4-73.3c18.3,23.6,34.1,43.9,51.6,66.4c10.9-14.9,20.1-27.8,29.6-40.4
	c76.6-102.6,214.2-118.8,313.4-36.9c91.3,75.3,98.8,219,16.2,309.8c-79,86.9-229.7,92-306.8,2.3
	C473.3-267.6,425.1-347.7,369.9-425.6z M807-347c0.1-55.1-32.6-100.1-85.3-117.1c-51-16.5-103.7,0.7-135.7,44.3
	c-54.4,74.3-54.4,74.3,1.3,147c33.2,43.4,86.8,59.3,139.3,41.4C773.1-247.2,807-295.9,807-347z"/>
<path class="st2" d="M381.3-532.7c-18.3,22.9-36.5,45.6-54.1,67.7c-93.3-10.3-144.7,13.8-166.4,76.9
	c-18.5,54.1,3.8,115.9,53.3,145.6c32.8,19.7,69.7,26.4,103.1,9.3c29.9-15.2,54.5-40.7,83-62.9c14.6,21.3,32.1,46.8,49.1,71.7
	c-62.4,94.1-194.7,118.6-290.1,55.2C62.6-233.4,35.2-367,98.7-464.7C160.4-559.4,290.1-591.3,381.3-532.7z"/>
<path class="st3" d="M2946.3-550.8c41.6,0,81-0.1,120.3,0.1c5.6,0,11.4,2,16.9,1.5c38.6-3.3,74.3,20.6,84.6,57.6
	c10.1,36.1,9.8,80.3-38.2,108.1c-1.2,0.7-1.8,2.7,1-1.8c18,22.8,40.5,41.2,49.5,64.8c21.7,57.2-15.4,119.1-77.4,126.3
	c-51,5.9-103.3,1.2-156.8,1.2C2946.3-311.4,2946.3-428.4,2946.3-550.8z M2985.4-362.8c0,49.6,0,92.7,0,138.1
	c33.9,0,65.9,0.5,97.9-0.1c37.7-0.7,60.6-22,64.1-58.3c3.7-37.2-15-67.9-50.9-73.3C3060.7-361.9,3023.8-360.9,2985.4-362.8z
	 M2985-395.1c35.1,0,68,1.5,100.7-0.5c27-1.6,47.9-27.1,50.5-56.4c2.3-26.6-13.5-58.7-35.3-61.4c-37.8-4.8-76.1-5-116-7.2
	C2985-476.1,2985-437.8,2985-395.1z"/>
<path class="st4" d="M1965-457.2c0,87.4,0,174.8,0,264c-13.6,0-24.3,0-36.6,0c0-121.1,0-241.5,0-367.7
	c87.4,95,171.5,186.4,259.8,282.4c0-92.8,0-179.9,0-269.4c14.4,0,25.9,0,38.6,0c0,120.1,0,240,0,366.5
	c-87.4-95.2-171.3-186.5-255.2-277.8C1969.3-458.5,1967.2-457.9,1965-457.2z"/>
<path class="st5" d="M2923.4-192.3c-17.1,0-28.1,0-41.3,0c-38.8-92.1-77.5-184.1-119-282.8c-41.5,97.9-80.4,189.6-119.8,282.2
	c-13.2,0-25.1,0-41.4,0c53.4-124.3,105.9-246.8,161.1-375.4C2817.6-440.3,2869.5-318.6,2923.4-192.3z"/>
<path class="st6" d="M1313.1-525.2c0-9.5,0-17.8,0-26c51.8-8.1,116.8,28.7,149.2,83.8c41.2,69.9,33.6,149.4-23.3,224.4
	c19.5,16.4,39.4,33.1,60.1,50.5c-12.8,13.6-20.4,21.7-28.8,30.7c-21.1-19.1-41.2-37.2-58.3-52.7c-33.8,10.6-63.9,20.1-97.5,30.7
	c-1.1-13.7-1.9-22.6-2.9-34.7c49-6.9,90.4-26.3,116.5-70c19.2-32.1,23.9-67,20.6-103.7C1442.3-462.2,1398.7-505.8,1313.1-525.2z"/>
<path class="st7" d="M1615.8-549c11,0,22,0,35.4,0c0,107.7,0,214.2,0,323.2c53.9,0,105.6,0,159.3,0c0,12.1,0,21.7,0,32.9
	c-64.2,0-128.3,0-194.7,0C1615.8-310.8,1615.8-429.3,1615.8-549z"/>
<path class="st8" d="M2436.6-224.7c30.7,0,56.1,0,81.5,0c25.3,0,50.6,0,77.5,0c0,11.9,0,20.8,0,31.7c-64.6,0-128.5,0-194.9,0
	c0-117.5,0-235,0-354.5c11,0,21.8,0,35.9,0C2436.6-441.1,2436.6-334.7,2436.6-224.7z"/>
<path class="st9" d="M1291.9-216.5c0,7.9,0,16.2,0,24.4c-84.3,9.5-168.6-74.3-173.5-169.3c-5.9-113.5,92-194.6,172.8-191.7
	c0,8.9,0,17.8,0,26.5c-96.2,34.2-134.9,79-135,155.5C1156-294.9,1193-252.6,1291.9-216.5z"/>
<path class="st4" d="M1842.8-548.9c11.2,0,22.2,0,34.9,0c0,118.5,0,236,0,355.6c-11.2,0-22,0-34.9,0
	C1842.8-310.9,1842.8-429.3,1842.8-548.9z"/>
<path class="st10" d="M1562.6-192.4c-12.5,0-21.7,0-33.1,0c0-118.3,0-235.9,0-355.4c10.1,0,20.7,0,33.1,0
	C1562.6-429.8,1562.6-312.2,1562.6-192.4z"/>
<path class="st1" d="M3763-427.7c16.9-20.9,31.1-38.4,47.8-59c14.7,19,27.5,35.3,41.5,53.4c8.8-12,16.2-22.3,23.8-32.5
	c61.7-82.6,172.5-95.6,252.3-29.7c73.5,60.7,79.6,176.3,13.1,249.5c-63.6,70-184.9,74.1-247,1.8C3846.2-300.5,3807.3-365,3763-427.7
	z M4114.9-364.5c0.1-44.4-26.3-80.6-68.7-94.3c-41.1-13.3-83.5,0.5-109.2,35.7c-43.8,59.8-43.8,59.8,1.1,118.4
	c26.8,34.9,69.9,47.8,112.2,33.4C4087.6-284.1,4114.8-323.3,4114.9-364.5z"/>
<path class="st2" d="M3772.1-514c-14.7,18.4-29.4,36.8-43.6,54.5c-75.1-8.3-116.5,11.1-134,61.9c-14.9,43.5,3.1,93.3,42.9,117.2
	c26.4,15.8,56.1,21.2,83,7.5c24.1-12.3,43.9-32.8,66.9-50.6c11.8,17.2,25.8,37.7,39.6,57.7c-50.2,75.8-156.7,95.5-233.6,44.5
	c-77.9-51.8-100-159.3-48.8-238C3594.2-535.5,3698.7-561.1,3772.1-514z"/>
</svg>
