<?xml version="1.0" encoding="utf-8"?>
<!-- Generator: Adobe Illustrator 26.3.1, SVG Export Plug-In . SVG Version: 6.00 Build 0)  -->
<svg version="1.1" id="Layer_1" xmlns="http://www.w3.org/2000/svg" xmlns:xlink="http://www.w3.org/1999/xlink" x="0px" y="0px"
	 viewBox="0 0 119.1 119.1" style="enable-background:new 0 0 119.1 119.1;" xml:space="preserve">
<style type="text/css">
	.st0{fill-rule:evenodd;clip-rule:evenodd;fill:#DDEEFF;}
	.st1{fill-rule:evenodd;clip-rule:evenodd;fill:#BBDDFF;}
	.st2{fill-rule:evenodd;clip-rule:evenodd;fill:#FFFFFF;}
	.st3{fill-rule:evenodd;clip-rule:evenodd;fill:#0066FF;}
	.st4{fill-rule:evenodd;clip-rule:evenodd;fill:#CC66FF;}
	.st5{fill-rule:evenodd;clip-rule:evenodd;fill:#66CCFF;}
</style>
<g>
	<path class="st0" d="M5.5,28h108.1v67.6H5.5V28z"/>
	<path class="st1" d="M113.6,28H5.5V14.5c0-5,4-9,9-9h90c5,0,9,4,9,9V28z"/>
	<path class="st2" d="M32.5,21.2c-2.5,0-4.5-2-4.5-4.5s2-4.5,4.5-4.5c2.5,0,4.5,2,4.5,4.5S35,21.2,32.5,21.2z M16.7,21.2
		c-2.5,0-4.5-2-4.5-4.5s2-4.5,4.5-4.5s4.5,2,4.5,4.5S19.2,21.2,16.7,21.2z"/>
	<path class="st3" d="M23.5,95.6h-18c0-13.8,5.3-27.7,15.8-38.2c21.1-21.1,55.3-21.1,76.4,0L85,70.1c-6.5-6.5-15.5-10.6-25.5-10.6
		C39.6,59.5,23.5,75.7,23.5,95.6L23.5,95.6z"/>
	<path class="st4" d="M95.6,95.6h18c0-13.8-5.3-27.7-15.8-38.2L85,70.1C91.5,76.6,95.6,85.6,95.6,95.6z"/>
	<path class="st5" d="M46.8,108.3c-7-7-7-18.4,0-25.5c7-7,46.2-20.7,46.2-20.7s-13.7,39.1-20.7,46.2
		C65.2,115.3,53.8,115.3,46.8,108.3L46.8,108.3z"/>
	<path class="st3" d="M59.5,104.6c-5,0-9-4-9-9c0-5,4-9,9-9s9,4,9,9S64.5,104.6,59.5,104.6z"/>
</g>
</svg>
